<svg xmlns="http://www.w3.org/2000/svg" width="24" height="24" viewBox="0 0 24 24"><title>Grafana SVG Icon</title><path fill="#ffffff" d="M20.963 10.852a6.847 6.847 0 0 0-.2-1.125a7.047 7.047 0 0 0-1.451-2.784a7.037 7.037 0 0 0-.51-.551a2.837 2.837 0 0 0-.334-2.039a3.015 3.015 0 0 0-1.969.508c-.041-.018-.083-.037-.124-.053a6.71 6.71 0 0 0-.554-.2a10.5 10.5 0 0 0-.58-.162a7.225 7.225 0 0 0-.706-.132a3.665 3.665 0 0 0-1.776-2.084a3.9 3.9 0 0 0-1.748 2.236S11 4.5 11 4.544c-.082.024-.162.046-.243.072c-.113.033-.223.076-.337.116a4.57 4.57 0 0 0-.334.135a7.106 7.106 0 0 0-.657.321a8.228 8.228 0 0 0-.612.385a.451.451 0 0 1-.051-.024a5.073 5.073 0 0 0-3.839.158a5.555 5.555 0 0 0 1 3.772a9.65 9.65 0 0 0-.135.406A9.332 9.332 0 0 0 5.46 11.4a5 5 0 0 0-.027.226A5.023 5.023 0 0 0 3 14.454a5.359 5.359 0 0 0 3.4 1.915h.005a8.369 8.369 0 0 0 .8 1.177c.126.153.261.3.4.445a4.224 4.224 0 0 0 .08 3a4.88 4.88 0 0 0 3.133-.955c.175.059.348.112.528.158a7.945 7.945 0 0 0 1.633.243c.137.006.273.008.412.008h.197l.086-.005a3.516 3.516 0 0 0 2.27 1.339a3.629 3.629 0 0 0 1.088-2.394v-.098a6.121 6.121 0 0 0 .616-.489a6.439 6.439 0 0 0 1.07-1.253l.083-.13a2.875 2.875 0 0 0 1.985-.722a3.057 3.057 0 0 0-1.028-1.918l-.014-.011l-.013-.012a.184.184 0 0 1-.025-.017l.017-.22c.008-.13.013-.26.013-.391v-.2l-.005-.083l-.006-.11c0-.038 0-.071-.008-.1c-.008-.029-.007-.067-.011-.1l-.013-.1l-.014-.1c-.019-.132-.047-.266-.075-.4a5.012 5.012 0 0 0-1.578-2.638a4.954 4.954 0 0 0-1.245-.8A4.8 4.8 0 0 0 15.4 9.09a4.907 4.907 0 0 0-.693-.04h-.172l-.084.006l-.094.008a3.139 3.139 0 0 0-.35.051a3.881 3.881 0 0 0-2.268 1.323a3.775 3.775 0 0 0-.875 2.189c-.006.092-.007.187-.006.278v.146c0 .045.007.091.011.136a3.075 3.075 0 0 0 .1.547a2.894 2.894 0 0 0 .464.935a2.95 2.95 0 0 0 .694.666a2.8 2.8 0 0 0 1.584.49h.195c.027 0 .053-.006.08-.008h.022l.025-.005l.048-.006c.034-.005.061-.012.092-.018c.031-.006.059-.011.089-.019a1.565 1.565 0 0 0 .169-.049a2.044 2.044 0 0 0 .309-.129a2.625 2.625 0 0 0 .267-.162c.022-.018.046-.034.07-.053a.2.2 0 0 0 .032-.283a.2.2 0 0 0-.253-.049c-.021.011-.043.024-.064.033a1.871 1.871 0 0 1-.232.094a2.794 2.794 0 0 1-.255.064l-.135.017h-.31a.294.294 0 0 1-.035 0c-.025 0-.048-.007-.073-.008a2.121 2.121 0 0 1-1.552-1.073a2.053 2.053 0 0 1-.232-.666a1.991 1.991 0 0 1-.024-.362c0-.033 0-.065.005-.1V13c0-.018 0-.032.005-.048c.006-.065.018-.131.027-.2a2.523 2.523 0 0 1 1.837-2.018a2.471 2.471 0 0 1 .418-.073c.072-.007.143-.008.215-.008h.165l.059.005a2.983 2.983 0 0 1 .458.07a3.258 3.258 0 0 1 .873.331a3.2 3.2 0 0 1 1.3 1.353a3.041 3.041 0 0 1 .3.911c.013.08.021.159.027.24v.182a.539.539 0 0 1 0 .057v.111c0 .04 0 .1-.007.144a4.553 4.553 0 0 1-.025.262c-.011.088-.026.172-.04.259c-.014.087-.035.17-.057.255a3.7 3.7 0 0 1-.162.5a4.225 4.225 0 0 1-.508.921a4.163 4.163 0 0 1-1.623 1.33a4.022 4.022 0 0 1-1.01.308a3.919 3.919 0 0 1-.528.053h-.268c-.095 0-.189-.006-.284-.014a5.272 5.272 0 0 1-1.112-.2a5.491 5.491 0 0 1-2.767-1.852a5.424 5.424 0 0 1-1.177-3.039v-.547a5.461 5.461 0 0 1 .047-.551a7.156 7.156 0 0 1 .227-1.103A7.108 7.108 0 0 1 8.716 9.6A5.709 5.709 0 0 1 9.9 7.89a4.876 4.876 0 0 1 .374-.332a4.6 4.6 0 0 1 .4-.289a4.331 4.331 0 0 1 .427-.25c.071-.04.148-.073.221-.11c.038-.017.076-.033.113-.051l.113-.049c.151-.065.308-.118.467-.169c.04-.012.08-.023.119-.036c.039-.013.08-.021.12-.034c.079-.023.162-.041.241-.06c.04-.011.083-.019.123-.027l.122-.025c.042-.008.083-.015.124-.024l.061-.011l.06-.008l.124-.02c.046-.007.093-.011.139-.019l.138-.017l.089-.008l.059-.006h.064c.046 0 .092-.006.139-.008h.12c.04 0 .079 0 .119-.006h.472a6.166 6.166 0 0 1 .92.1a6.365 6.365 0 0 1 1.666.555a6.582 6.582 0 0 1 1.36.888c.026.02.048.043.073.063a8.914 8.914 0 0 1 .476.455A7.033 7.033 0 0 1 20.1 10l.033.065l.032.066c.021.042.043.084.061.125l.057.124c.018.04.035.083.052.123c.067.162.129.315.177.461c.083.234.143.445.189.631a.156.156 0 0 0 .164.116a.153.153 0 0 0 .14-.149c-.01-.21-.013-.441-.037-.706z"/></svg>