<svg xmlns="http://www.w3.org/2000/svg" width="24" height="24" viewBox="0 0 24 24"><title>Prometheusio SVG Icon</title><path fill="#ffffff" d="M12 2.5a9.5 9.5 0 1 0 9.5 9.5A9.5 9.5 0 0 0 12 2.5m0 17.78a2.5 2.5 0 0 1-2.7-2.227h5.4A2.5 2.5 0 0 1 12 20.28m4.469-2.964H7.535V15.7h8.933zm-.035-2.452H7.561l-.088-.1a6.483 6.483 0 0 1-1.339-2.28c0-.02 1.109.227 1.9.4c0 0 .406.094 1 .2a3.71 3.71 0 0 1-.911-2.384c0-1.9 1.46-3.568.933-4.913c.513.042 1.062 1.083 1.1 2.709a5.817 5.817 0 0 0 .773-2.972c0-.874.576-1.889 1.151-1.923c-.513.846.133 1.57.707 3.369c.216.676.188 1.813.355 2.534c.055-1.5.312-3.683 1.263-4.437a3.275 3.275 0 0 0 .391 2.71a5.133 5.133 0 0 1 .853 2.939a3.688 3.688 0 0 1-.879 2.375c.627-.117 1.06-.223 1.06-.223l2.038-.4a5.78 5.78 0 0 1-1.435 2.396z"/></svg>